<mxfile host="app.diagrams.net" agent="Mozilla/5.0 (Macintosh; Intel Mac OS X 10_15_7) AppleWebKit/605.1.15 (KHTML, like Gecko) Version/18.0 Safari/605.1.15" version="24.7.14">
  <diagram name="Pagina-1" id="tVlC7E1NlxJWpnCf0n8r">
    <mxGraphModel grid="1" page="1" gridSize="10" guides="1" tooltips="1" connect="1" arrows="1" fold="1" pageScale="1" pageWidth="827" pageHeight="1169" math="0" shadow="0">
      <root>
        <mxCell id="0" />
        <mxCell id="1" parent="0" />
        <mxCell id="tmEfC8B-hnmJkJ5TD7nx-4" value="" style="edgeStyle=orthogonalEdgeStyle;rounded=0;orthogonalLoop=1;jettySize=auto;html=1;" edge="1" parent="1" source="tmEfC8B-hnmJkJ5TD7nx-1" target="tmEfC8B-hnmJkJ5TD7nx-3">
          <mxGeometry relative="1" as="geometry" />
        </mxCell>
        <mxCell id="tmEfC8B-hnmJkJ5TD7nx-1" value="" style="ellipse;whiteSpace=wrap;html=1;aspect=fixed;" vertex="1" parent="1">
          <mxGeometry x="360" y="160" width="80" height="80" as="geometry" />
        </mxCell>
        <mxCell id="tmEfC8B-hnmJkJ5TD7nx-2" value="Ripasso 1: Prendere in input due variabili intere (A e B) e stampare(dare in output) il valore maggiore tra le due" style="text;html=1;align=center;verticalAlign=middle;whiteSpace=wrap;rounded=0;fontSize=28;" vertex="1" parent="1">
          <mxGeometry x="104" y="70" width="620" height="30" as="geometry" />
        </mxCell>
        <mxCell id="tmEfC8B-hnmJkJ5TD7nx-6" value="" style="edgeStyle=orthogonalEdgeStyle;rounded=0;orthogonalLoop=1;jettySize=auto;html=1;" edge="1" parent="1" source="tmEfC8B-hnmJkJ5TD7nx-3" target="tmEfC8B-hnmJkJ5TD7nx-5">
          <mxGeometry relative="1" as="geometry" />
        </mxCell>
        <mxCell id="tmEfC8B-hnmJkJ5TD7nx-3" value="A, B" style="shape=hexagon;perimeter=hexagonPerimeter2;whiteSpace=wrap;html=1;fixedSize=1;" vertex="1" parent="1">
          <mxGeometry x="340" y="270" width="120" height="80" as="geometry" />
        </mxCell>
        <mxCell id="tmEfC8B-hnmJkJ5TD7nx-8" value="" style="edgeStyle=orthogonalEdgeStyle;rounded=0;orthogonalLoop=1;jettySize=auto;html=1;" edge="1" parent="1" source="tmEfC8B-hnmJkJ5TD7nx-5" target="tmEfC8B-hnmJkJ5TD7nx-7">
          <mxGeometry relative="1" as="geometry" />
        </mxCell>
        <mxCell id="tmEfC8B-hnmJkJ5TD7nx-5" value="A, B" style="shape=parallelogram;perimeter=parallelogramPerimeter;whiteSpace=wrap;html=1;fixedSize=1;fillColor=#d5e8d4;strokeColor=#82b366;" vertex="1" parent="1">
          <mxGeometry x="340" y="390" width="120" height="60" as="geometry" />
        </mxCell>
        <mxCell id="tmEfC8B-hnmJkJ5TD7nx-10" value="" style="edgeStyle=orthogonalEdgeStyle;rounded=0;orthogonalLoop=1;jettySize=auto;html=1;" edge="1" parent="1" source="tmEfC8B-hnmJkJ5TD7nx-7" target="tmEfC8B-hnmJkJ5TD7nx-9">
          <mxGeometry relative="1" as="geometry" />
        </mxCell>
        <mxCell id="tmEfC8B-hnmJkJ5TD7nx-12" value="" style="edgeStyle=orthogonalEdgeStyle;rounded=0;orthogonalLoop=1;jettySize=auto;html=1;" edge="1" parent="1" source="tmEfC8B-hnmJkJ5TD7nx-7" target="tmEfC8B-hnmJkJ5TD7nx-11">
          <mxGeometry relative="1" as="geometry" />
        </mxCell>
        <mxCell id="tmEfC8B-hnmJkJ5TD7nx-7" value="A &amp;gt; B" style="rhombus;whiteSpace=wrap;html=1;" vertex="1" parent="1">
          <mxGeometry x="360" y="505" width="80" height="80" as="geometry" />
        </mxCell>
        <mxCell id="tmEfC8B-hnmJkJ5TD7nx-16" style="edgeStyle=orthogonalEdgeStyle;rounded=0;orthogonalLoop=1;jettySize=auto;html=1;entryX=1;entryY=0.5;entryDx=0;entryDy=0;" edge="1" parent="1" source="tmEfC8B-hnmJkJ5TD7nx-9" target="tmEfC8B-hnmJkJ5TD7nx-14">
          <mxGeometry relative="1" as="geometry">
            <Array as="points">
              <mxPoint x="560" y="730" />
            </Array>
          </mxGeometry>
        </mxCell>
        <mxCell id="tmEfC8B-hnmJkJ5TD7nx-9" value="A" style="shape=parallelogram;perimeter=parallelogramPerimeter;whiteSpace=wrap;html=1;fixedSize=1;fillColor=#f8cecc;strokeColor=#b85450;" vertex="1" parent="1">
          <mxGeometry x="500" y="610" width="120" height="60" as="geometry" />
        </mxCell>
        <mxCell id="tmEfC8B-hnmJkJ5TD7nx-15" value="" style="edgeStyle=orthogonalEdgeStyle;rounded=0;orthogonalLoop=1;jettySize=auto;html=1;" edge="1" parent="1" source="tmEfC8B-hnmJkJ5TD7nx-11" target="tmEfC8B-hnmJkJ5TD7nx-14">
          <mxGeometry relative="1" as="geometry">
            <Array as="points">
              <mxPoint x="240" y="730" />
            </Array>
          </mxGeometry>
        </mxCell>
        <mxCell id="tmEfC8B-hnmJkJ5TD7nx-11" value="B" style="shape=parallelogram;perimeter=parallelogramPerimeter;whiteSpace=wrap;html=1;fixedSize=1;fillColor=#f8cecc;strokeColor=#b85450;" vertex="1" parent="1">
          <mxGeometry x="180" y="610" width="120" height="60" as="geometry" />
        </mxCell>
        <mxCell id="tmEfC8B-hnmJkJ5TD7nx-20" value="" style="edgeStyle=orthogonalEdgeStyle;rounded=0;orthogonalLoop=1;jettySize=auto;html=1;" edge="1" parent="1" source="tmEfC8B-hnmJkJ5TD7nx-14" target="tmEfC8B-hnmJkJ5TD7nx-19">
          <mxGeometry relative="1" as="geometry" />
        </mxCell>
        <mxCell id="tmEfC8B-hnmJkJ5TD7nx-14" value="" style="ellipse;whiteSpace=wrap;html=1;" vertex="1" parent="1">
          <mxGeometry x="380" y="710" width="40" height="40" as="geometry" />
        </mxCell>
        <mxCell id="tmEfC8B-hnmJkJ5TD7nx-19" value="" style="ellipse;whiteSpace=wrap;html=1;fillColor=#000000;" vertex="1" parent="1">
          <mxGeometry x="360" y="810" width="80" height="80" as="geometry" />
        </mxCell>
        <mxCell id="tmEfC8B-hnmJkJ5TD7nx-21" value="i" style="text;html=1;align=center;verticalAlign=middle;resizable=0;points=[];autosize=1;strokeColor=none;fillColor=none;" vertex="1" parent="1">
          <mxGeometry x="425" y="358" width="30" height="30" as="geometry" />
        </mxCell>
        <mxCell id="tmEfC8B-hnmJkJ5TD7nx-22" value="o" style="text;html=1;align=center;verticalAlign=middle;resizable=0;points=[];autosize=1;strokeColor=none;fillColor=none;" vertex="1" parent="1">
          <mxGeometry x="595" y="578" width="30" height="30" as="geometry" />
        </mxCell>
        <mxCell id="tmEfC8B-hnmJkJ5TD7nx-23" value="o" style="text;html=1;align=center;verticalAlign=middle;resizable=0;points=[];autosize=1;strokeColor=none;fillColor=none;" vertex="1" parent="1">
          <mxGeometry x="275" y="578" width="30" height="30" as="geometry" />
        </mxCell>
        <mxCell id="CEye5VhckjhVq3TiC93D-1" value="V" style="text;html=1;align=center;verticalAlign=middle;resizable=0;points=[];autosize=1;strokeColor=none;fillColor=none;" vertex="1" parent="1">
          <mxGeometry x="515" y="518" width="30" height="30" as="geometry" />
        </mxCell>
        <mxCell id="CEye5VhckjhVq3TiC93D-2" value="F" style="text;html=1;align=center;verticalAlign=middle;resizable=0;points=[];autosize=1;strokeColor=none;fillColor=none;" vertex="1" parent="1">
          <mxGeometry x="235" y="518" width="30" height="30" as="geometry" />
        </mxCell>
      </root>
    </mxGraphModel>
  </diagram>
</mxfile>
